<svg xmlns="http://www.w3.org/2000/svg" viewBox="0 0 400 280" role="img" aria-label="公的データ100% を表すイラスト">
  <defs>
    <linearGradient id="bg01" x1="0" y1="0" x2="1" y2="1">
      <stop offset="0" stop-color="#EFF6FF"/><stop offset="1" stop-color="#DBEAFE"/>
    </linearGradient>
    <linearGradient id="brand01" x1="0" y1="0" x2="1" y2="1">
      <stop offset="0" stop-color="#1E3A8A"/><stop offset="1" stop-color="#0EA5E9"/>
    </linearGradient>
  </defs>
  <rect width="400" height="280" rx="20" fill="url(#bg01)"/>
  <!-- shield -->
  <path d="M200 50 L268 78 V148 c0 42 -30 70 -68 86 c-38 -16 -68 -44 -68 -86 V78 Z" fill="url(#brand01)"/>
  <path d="M170 144 l22 22 l40 -46" fill="none" stroke="#fff" stroke-width="9" stroke-linecap="round" stroke-linejoin="round"/>
  <!-- data tags -->
  <g font-family="Inter, 'Noto Sans JP', sans-serif" font-size="13" font-weight="700">
    <g transform="translate(36,70)">
      <rect width="92" height="30" rx="15" fill="#fff" stroke="#CBD5E1"/>
      <text x="46" y="20" text-anchor="middle" fill="#1E3A8A">国土交通省</text>
    </g>
    <g transform="translate(272,68)">
      <rect width="90" height="30" rx="15" fill="#fff" stroke="#CBD5E1"/>
      <text x="45" y="20" text-anchor="middle" fill="#1E3A8A">国税庁</text>
    </g>
    <g transform="translate(20,170)">
      <rect width="102" height="30" rx="15" fill="#fff" stroke="#CBD5E1"/>
      <text x="51" y="20" text-anchor="middle" fill="#1E3A8A">国土地理院</text>
    </g>
    <g transform="translate(286,180)">
      <rect width="78" height="30" rx="15" fill="#fff" stroke="#CBD5E1"/>
      <text x="39" y="20" text-anchor="middle" fill="#1E3A8A">e-Stat</text>
    </g>
    <g transform="translate(148,240)">
      <rect width="104" height="30" rx="15" fill="#fff" stroke="#CBD5E1"/>
      <text x="52" y="20" text-anchor="middle" fill="#1E3A8A">公的データ</text>
    </g>
  </g>
</svg>
