<svg xmlns="http://www.w3.org/2000/svg" viewBox="0 0 400 280" role="img" aria-label="全国対応 を表すイラスト">
  <defs>
    <linearGradient id="bg06" x1="0" y1="0" x2="1" y2="1">
      <stop offset="0" stop-color="#EFF6FF"/><stop offset="1" stop-color="#DBEAFE"/>
    </linearGradient>
    <linearGradient id="brand06" x1="0" y1="0" x2="1" y2="1">
      <stop offset="0" stop-color="#1E3A8A"/><stop offset="1" stop-color="#0EA5E9"/>
    </linearGradient>
  </defs>
  <rect width="400" height="280" rx="20" fill="url(#bg06)"/>

  <!-- Stylized Japan archipelago silhouette -->
  <g fill="#fff" stroke="#94A3B8" stroke-width="1.5" stroke-linejoin="round">
    <!-- 北海道 -->
    <path d="M256 56 Q288 50 308 64 Q314 84 296 96 Q272 92 258 78 Z"/>
    <!-- 本州 -->
    <path d="M120 130 Q150 116 184 124 Q210 122 232 132 Q252 136 270 130 Q284 142 276 158 Q262 168 240 168 Q220 178 198 176 Q178 184 158 178 Q138 178 124 162 Q116 148 120 130 Z"/>
    <!-- 四国 -->
    <path d="M178 196 Q196 192 216 198 Q220 210 206 218 Q188 220 174 212 Z"/>
    <!-- 九州 -->
    <path d="M120 188 Q140 184 152 196 Q156 214 148 226 Q132 232 120 222 Q108 212 112 198 Z"/>
    <!-- 沖縄 -->
    <path d="M74 236 Q88 232 92 244 Q86 252 74 248 Z"/>
  </g>

  <!-- location pins -->
  <g>
    <g transform="translate(284,72)">
      <path d="M0 0 a 12 12 0 1 1 0.01 0 Z" fill="#2563EB"/>
      <circle cx="0" cy="0" r="4" fill="#fff"/>
      <path d="M-9 6 Q0 24 9 6" fill="#2563EB"/>
    </g>
    <g transform="translate(176,140)">
      <path d="M0 0 a 12 12 0 1 1 0.01 0 Z" fill="#2563EB"/>
      <circle cx="0" cy="0" r="4" fill="#fff"/>
      <path d="M-9 6 Q0 24 9 6" fill="#2563EB"/>
    </g>
    <g transform="translate(232,150)">
      <path d="M0 0 a 12 12 0 1 1 0.01 0 Z" fill="#2563EB"/>
      <circle cx="0" cy="0" r="4" fill="#fff"/>
      <path d="M-9 6 Q0 24 9 6" fill="#2563EB"/>
    </g>
    <g transform="translate(140,200)">
      <path d="M0 0 a 12 12 0 1 1 0.01 0 Z" fill="#2563EB"/>
      <circle cx="0" cy="0" r="4" fill="#fff"/>
      <path d="M-9 6 Q0 24 9 6" fill="#2563EB"/>
    </g>
  </g>

  <!-- "全国対応" pill -->
  <g transform="translate(254,196)">
    <rect width="116" height="42" rx="21" fill="url(#brand06)"/>
    <text x="58" y="27" text-anchor="middle" font-family="'Noto Sans JP', sans-serif" font-size="15" font-weight="800" fill="#fff">全国対応</text>
  </g>
</svg>
