<svg xmlns="http://www.w3.org/2000/svg" viewBox="0 0 128 128" role="img" aria-label="調速 ロゴマーク（白）">
  <path d="M 20.67 65.64 A 44 44 0 1 1 48.95 99.35" fill="none" stroke="#FFFFFF" stroke-width="7" stroke-linecap="round"/>
  <path d="M 44.71 97.55 A 44 44 0 0 1 21.70 70.13" fill="none" stroke="#FFFFFF" stroke-width="7" stroke-linecap="round" stroke-dasharray="2 8" opacity="0.8"/>
  <g fill="#FFFFFF">
    <path d="M34 98 L34 80 L43 70 L52 80 L52 98 Z"/>
    <path d="M55 98 L55 57 L60 53 L65 57 L65 98 Z"/>
    <path d="M66 98 L66 73 L82 73 L82 98 Z"/>
  </g>
  <g fill="#1E3A8A" opacity="0.55">
    <rect x="40" y="84" width="6" height="6" rx="1"/>
    <rect x="58.5" y="62" width="3" height="4" rx="0.5"/>
    <rect x="58.5" y="70" width="3" height="4" rx="0.5"/>
    <rect x="70" y="78" width="3" height="4" rx="0.5"/>
    <rect x="76" y="78" width="3" height="4" rx="0.5"/>
  </g>
  <line x1="62" y1="60" x2="87" y2="38" stroke="#FFFFFF" stroke-width="5" stroke-linecap="round"/>
  <circle cx="62" cy="60" r="6.5" fill="#FFFFFF"/>
  <circle cx="62" cy="60" r="2.4" fill="#1E3A8A"/>
</svg>
